<mxfile host="app.diagrams.net" modified="2021-07-29T03:55:33.373Z" agent="5.0 (Windows NT 10.0; Win64; x64) AppleWebKit/537.36 (KHTML, like Gecko) Chrome/92.0.4515.107 Safari/537.36" etag="OjWJCeqFh1yeOq_Pzt6j" version="14.9.3" type="github">
  <diagram id="SX112-Fg5Q77WBPCnmW_" name="Page-1">
    <mxGraphModel dx="1360" dy="806" grid="1" gridSize="10" guides="1" tooltips="1" connect="1" arrows="1" fold="1" page="1" pageScale="1" pageWidth="850" pageHeight="1100" math="0" shadow="0">
      <root>
        <mxCell id="0" />
        <mxCell id="1" parent="0" />
        <mxCell id="iDd988HbCzcnQ30_lzB4-1" value="" style="rounded=0;whiteSpace=wrap;html=1;strokeColor=none;" parent="1" vertex="1">
          <mxGeometry x="40" y="40" width="590" height="230" as="geometry" />
        </mxCell>
        <mxCell id="iDd988HbCzcnQ30_lzB4-2" style="edgeStyle=orthogonalEdgeStyle;rounded=0;orthogonalLoop=1;jettySize=auto;html=1;endArrow=classicThin;endFill=1;fillColor=#e51400;strokeColor=#B20000;strokeWidth=3;" parent="1" source="iDd988HbCzcnQ30_lzB4-3" target="iDd988HbCzcnQ30_lzB4-15" edge="1">
          <mxGeometry relative="1" as="geometry">
            <Array as="points">
              <mxPoint x="280" y="145.41" />
              <mxPoint x="280" y="145.41" />
            </Array>
          </mxGeometry>
        </mxCell>
        <mxCell id="iDd988HbCzcnQ30_lzB4-3" value="WDA" style="ellipse;whiteSpace=wrap;html=1;fontStyle=1;strokeWidth=2;" parent="1" vertex="1">
          <mxGeometry x="100" y="120" width="80" height="50" as="geometry" />
        </mxCell>
        <mxCell id="iDd988HbCzcnQ30_lzB4-4" style="edgeStyle=orthogonalEdgeStyle;rounded=1;orthogonalLoop=1;jettySize=auto;html=1;startArrow=none;startFill=0;endArrow=classicThin;endFill=1;fontSize=10;strokeWidth=1;fillColor=#76608a;strokeColor=#432D57;" parent="1" source="iDd988HbCzcnQ30_lzB4-9" target="iDd988HbCzcnQ30_lzB4-24" edge="1">
          <mxGeometry relative="1" as="geometry">
            <Array as="points">
              <mxPoint x="570" y="240.00000000000003" />
            </Array>
          </mxGeometry>
        </mxCell>
        <mxCell id="iDd988HbCzcnQ30_lzB4-5" style="edgeStyle=orthogonalEdgeStyle;rounded=1;orthogonalLoop=1;jettySize=auto;html=1;startArrow=none;startFill=0;endArrow=classicThin;endFill=1;fontSize=10;strokeWidth=1;fillColor=#76608a;strokeColor=#432D57;" parent="1" source="iDd988HbCzcnQ30_lzB4-9" edge="1">
          <mxGeometry relative="1" as="geometry">
            <mxPoint x="539.9999999999999" y="156.65063509461098" as="sourcePoint" />
            <mxPoint x="480.0000000000002" y="195" as="targetPoint" />
            <Array as="points">
              <mxPoint x="540" y="195.00000000000003" />
            </Array>
          </mxGeometry>
        </mxCell>
        <mxCell id="iDd988HbCzcnQ30_lzB4-6" style="edgeStyle=orthogonalEdgeStyle;rounded=1;orthogonalLoop=1;jettySize=auto;html=1;startArrow=none;startFill=0;endArrow=classicThin;endFill=1;fontSize=10;strokeWidth=3;fillColor=#76608a;strokeColor=#432D57;" parent="1" source="iDd988HbCzcnQ30_lzB4-9" target="iDd988HbCzcnQ30_lzB4-27" edge="1">
          <mxGeometry relative="1" as="geometry">
            <Array as="points">
              <mxPoint x="500" y="150" />
              <mxPoint x="500" y="150" />
            </Array>
          </mxGeometry>
        </mxCell>
        <mxCell id="iDd988HbCzcnQ30_lzB4-7" style="edgeStyle=orthogonalEdgeStyle;rounded=1;orthogonalLoop=1;jettySize=auto;html=1;startArrow=none;startFill=0;endArrow=classicThin;endFill=1;fontSize=10;strokeWidth=3;fillColor=#76608a;strokeColor=#432D57;" parent="1" source="iDd988HbCzcnQ30_lzB4-9" target="iDd988HbCzcnQ30_lzB4-30" edge="1">
          <mxGeometry relative="1" as="geometry">
            <Array as="points">
              <mxPoint x="530" y="110.00000000000003" />
            </Array>
          </mxGeometry>
        </mxCell>
        <mxCell id="iDd988HbCzcnQ30_lzB4-8" style="edgeStyle=orthogonalEdgeStyle;rounded=1;orthogonalLoop=1;jettySize=auto;html=1;startArrow=none;startFill=0;endArrow=classicThin;endFill=1;strokeColor=#432D57;strokeWidth=1;fontSize=10;fontColor=#999999;fillColor=#76608a;" parent="1" source="iDd988HbCzcnQ30_lzB4-9" target="iDd988HbCzcnQ30_lzB4-32" edge="1">
          <mxGeometry relative="1" as="geometry">
            <Array as="points">
              <mxPoint x="550" y="200.00000000000003" />
              <mxPoint x="550" y="200.00000000000003" />
            </Array>
          </mxGeometry>
        </mxCell>
        <mxCell id="iDd988HbCzcnQ30_lzB4-9" value="MWs" style="ellipse;whiteSpace=wrap;html=1;fontStyle=1;strokeWidth=2;" parent="1" vertex="1">
          <mxGeometry x="520" y="120" width="80" height="50" as="geometry" />
        </mxCell>
        <mxCell id="iDd988HbCzcnQ30_lzB4-10" value="company" style="rounded=0;whiteSpace=wrap;html=1;strokeColor=#999999;" parent="1" vertex="1">
          <mxGeometry x="210" y="135" width="60" height="20" as="geometry" />
        </mxCell>
        <mxCell id="iDd988HbCzcnQ30_lzB4-11" style="edgeStyle=orthogonalEdgeStyle;rounded=1;orthogonalLoop=1;jettySize=auto;html=1;endArrow=classicThin;endFill=1;startArrow=classicThin;startFill=1;fillColor=#e51400;strokeColor=#B20000;strokeWidth=3;" parent="1" source="iDd988HbCzcnQ30_lzB4-13" target="iDd988HbCzcnQ30_lzB4-3" edge="1">
          <mxGeometry relative="1" as="geometry">
            <Array as="points">
              <mxPoint x="170" y="190.00000000000003" />
            </Array>
          </mxGeometry>
        </mxCell>
        <mxCell id="iDd988HbCzcnQ30_lzB4-12" style="edgeStyle=orthogonalEdgeStyle;rounded=1;orthogonalLoop=1;jettySize=auto;html=1;startArrow=classicThin;startFill=1;endArrow=classicThin;endFill=1;fontSize=10;fillColor=#e51400;strokeColor=#B20000;strokeWidth=1;" parent="1" source="iDd988HbCzcnQ30_lzB4-13" target="iDd988HbCzcnQ30_lzB4-19" edge="1">
          <mxGeometry relative="1" as="geometry" />
        </mxCell>
        <mxCell id="iDd988HbCzcnQ30_lzB4-13" value="NGO" style="rounded=0;whiteSpace=wrap;html=1;strokeColor=#999999;" parent="1" vertex="1">
          <mxGeometry x="210" y="180" width="60" height="20" as="geometry" />
        </mxCell>
        <mxCell id="iDd988HbCzcnQ30_lzB4-14" value="(outsourced)" style="text;html=1;align=center;verticalAlign=middle;whiteSpace=wrap;rounded=0;fontSize=10;fontColor=#999999;" parent="1" vertex="1">
          <mxGeometry x="210" y="160" width="60" height="10" as="geometry" />
        </mxCell>
        <mxCell id="iDd988HbCzcnQ30_lzB4-15" value="&lt;b&gt;the &lt;i&gt;Portal&lt;/i&gt;&lt;/b&gt;&lt;br&gt;&lt;font style=&quot;font-size: 10px&quot;&gt;(help all understand regulations)&lt;/font&gt;" style="rounded=1;whiteSpace=wrap;html=1;verticalAlign=bottom;strokeWidth=2;" parent="1" vertex="1">
          <mxGeometry x="300" y="90" width="70" height="80" as="geometry" />
        </mxCell>
        <mxCell id="iDd988HbCzcnQ30_lzB4-16" value="PH Gov." style="rounded=0;whiteSpace=wrap;html=1;fillColor=#f5f5f5;strokeColor=#999999;fontColor=#999999;" parent="1" vertex="1">
          <mxGeometry x="330" y="225" width="60" height="20" as="geometry" />
        </mxCell>
        <mxCell id="iDd988HbCzcnQ30_lzB4-17" style="edgeStyle=orthogonalEdgeStyle;rounded=1;orthogonalLoop=1;jettySize=auto;html=1;startArrow=none;startFill=0;endArrow=classicThin;endFill=1;fontSize=10;fillColor=#76608a;strokeColor=#432D57;strokeWidth=1;" parent="1" source="iDd988HbCzcnQ30_lzB4-24" target="iDd988HbCzcnQ30_lzB4-19" edge="1">
          <mxGeometry relative="1" as="geometry">
            <mxPoint x="430" y="210.00000000000003" as="sourcePoint" />
            <Array as="points">
              <mxPoint x="450" y="210.00000000000003" />
              <mxPoint x="450" y="210.00000000000003" />
            </Array>
          </mxGeometry>
        </mxCell>
        <mxCell id="iDd988HbCzcnQ30_lzB4-18" style="edgeStyle=orthogonalEdgeStyle;rounded=1;orthogonalLoop=1;jettySize=auto;html=1;startArrow=none;startFill=0;endArrow=classicThin;endFill=1;fontSize=10;fillColor=#e51400;strokeColor=#B20000;" parent="1" target="iDd988HbCzcnQ30_lzB4-9" edge="1">
          <mxGeometry relative="1" as="geometry">
            <mxPoint x="480.0000000000002" y="185" as="sourcePoint" />
            <mxPoint x="529.9999999999999" y="151.53594569415364" as="targetPoint" />
            <Array as="points">
              <mxPoint x="530" y="185.00000000000003" />
            </Array>
          </mxGeometry>
        </mxCell>
        <mxCell id="iDd988HbCzcnQ30_lzB4-19" value="1955" style="rounded=0;whiteSpace=wrap;html=1;" parent="1" vertex="1">
          <mxGeometry x="420" y="180" width="60" height="20" as="geometry" />
        </mxCell>
        <mxCell id="iDd988HbCzcnQ30_lzB4-20" style="edgeStyle=orthogonalEdgeStyle;rounded=1;orthogonalLoop=1;jettySize=auto;html=1;startArrow=none;startFill=0;endArrow=classicThin;endFill=1;fontSize=10;fillColor=#e51400;strokeColor=#999999;" parent="1" source="iDd988HbCzcnQ30_lzB4-16" target="iDd988HbCzcnQ30_lzB4-24" edge="1">
          <mxGeometry relative="1" as="geometry">
            <Array as="points" />
          </mxGeometry>
        </mxCell>
        <mxCell id="iDd988HbCzcnQ30_lzB4-21" style="edgeStyle=orthogonalEdgeStyle;rounded=1;orthogonalLoop=1;jettySize=auto;html=1;startArrow=classicThin;startFill=1;endArrow=classicThin;endFill=1;fontSize=10;fillColor=#f5f5f5;strokeColor=#999999;" parent="1" source="iDd988HbCzcnQ30_lzB4-24" target="iDd988HbCzcnQ30_lzB4-31" edge="1">
          <mxGeometry relative="1" as="geometry">
            <Array as="points">
              <mxPoint x="440" y="210.00000000000003" />
            </Array>
          </mxGeometry>
        </mxCell>
        <mxCell id="iDd988HbCzcnQ30_lzB4-22" style="edgeStyle=orthogonalEdgeStyle;rounded=1;orthogonalLoop=1;jettySize=auto;html=1;startArrow=none;startFill=0;endArrow=classicThin;endFill=1;fontSize=10;fillColor=#e51400;strokeColor=#999999;" parent="1" source="iDd988HbCzcnQ30_lzB4-24" target="iDd988HbCzcnQ30_lzB4-32" edge="1">
          <mxGeometry relative="1" as="geometry">
            <Array as="points">
              <mxPoint x="460" y="215.00000000000003" />
            </Array>
          </mxGeometry>
        </mxCell>
        <mxCell id="iDd988HbCzcnQ30_lzB4-23" style="edgeStyle=orthogonalEdgeStyle;rounded=1;orthogonalLoop=1;jettySize=auto;html=1;startArrow=none;startFill=0;endArrow=classicThin;endFill=1;fontSize=10;fillColor=#e51400;strokeColor=#B20000;" parent="1" source="iDd988HbCzcnQ30_lzB4-24" target="iDd988HbCzcnQ30_lzB4-9" edge="1">
          <mxGeometry relative="1" as="geometry">
            <Array as="points">
              <mxPoint x="560" y="230.00000000000003" />
            </Array>
          </mxGeometry>
        </mxCell>
        <mxCell id="iDd988HbCzcnQ30_lzB4-24" value="MECO" style="rounded=0;whiteSpace=wrap;html=1;" parent="1" vertex="1">
          <mxGeometry x="420" y="225" width="60" height="20" as="geometry" />
        </mxCell>
        <mxCell id="iDd988HbCzcnQ30_lzB4-25" style="edgeStyle=orthogonalEdgeStyle;orthogonalLoop=1;jettySize=auto;html=1;startArrow=classicThin;startFill=1;endArrow=classicThin;endFill=1;fontSize=10;fillColor=#d5e8d4;strokeColor=#82b366;strokeWidth=2;" parent="1" source="iDd988HbCzcnQ30_lzB4-27" target="iDd988HbCzcnQ30_lzB4-15" edge="1">
          <mxGeometry relative="1" as="geometry">
            <mxPoint x="380" y="150.00000000000003" as="targetPoint" />
            <Array as="points">
              <mxPoint x="400" y="145" />
              <mxPoint x="400" y="145" />
            </Array>
          </mxGeometry>
        </mxCell>
        <mxCell id="iDd988HbCzcnQ30_lzB4-26" style="edgeStyle=orthogonalEdgeStyle;rounded=1;orthogonalLoop=1;jettySize=auto;html=1;startArrow=none;startFill=0;endArrow=classicThin;endFill=1;fontSize=10;fillColor=#e51400;strokeColor=#B20000;strokeWidth=3;" parent="1" source="iDd988HbCzcnQ30_lzB4-27" target="iDd988HbCzcnQ30_lzB4-9" edge="1">
          <mxGeometry relative="1" as="geometry">
            <Array as="points">
              <mxPoint x="500" y="140.00000000000003" />
              <mxPoint x="500" y="140.00000000000003" />
            </Array>
          </mxGeometry>
        </mxCell>
        <mxCell id="iDd988HbCzcnQ30_lzB4-27" value="Google" style="rounded=0;whiteSpace=wrap;html=1;" parent="1" vertex="1">
          <mxGeometry x="420" y="135" width="60" height="20" as="geometry" />
        </mxCell>
        <mxCell id="iDd988HbCzcnQ30_lzB4-28" style="edgeStyle=orthogonalEdgeStyle;orthogonalLoop=1;jettySize=auto;html=1;startArrow=classicThin;startFill=1;endArrow=classicThin;endFill=1;fontSize=10;rounded=1;fillColor=#d5e8d4;strokeColor=#82b366;strokeWidth=2;" parent="1" source="iDd988HbCzcnQ30_lzB4-30" target="iDd988HbCzcnQ30_lzB4-15" edge="1">
          <mxGeometry relative="1" as="geometry">
            <mxPoint x="420" y="109.99970873786404" as="sourcePoint" />
            <mxPoint x="380" y="109.99970873786404" as="targetPoint" />
            <Array as="points">
              <mxPoint x="380" y="105.00000000000003" />
              <mxPoint x="380" y="105.00000000000003" />
            </Array>
          </mxGeometry>
        </mxCell>
        <mxCell id="iDd988HbCzcnQ30_lzB4-29" style="edgeStyle=orthogonalEdgeStyle;rounded=1;orthogonalLoop=1;jettySize=auto;html=1;startArrow=none;startFill=0;endArrow=classicThin;endFill=1;fontSize=10;fillColor=#e51400;strokeColor=#B20000;strokeWidth=3;" parent="1" source="iDd988HbCzcnQ30_lzB4-30" target="iDd988HbCzcnQ30_lzB4-9" edge="1">
          <mxGeometry relative="1" as="geometry">
            <Array as="points">
              <mxPoint x="540" y="100.00000000000003" />
            </Array>
          </mxGeometry>
        </mxCell>
        <mxCell id="iDd988HbCzcnQ30_lzB4-30" value="other MWs" style="rounded=0;whiteSpace=wrap;html=1;" parent="1" vertex="1">
          <mxGeometry x="420" y="95" width="70" height="20" as="geometry" />
        </mxCell>
        <mxCell id="iDd988HbCzcnQ30_lzB4-31" value="Church" style="rounded=0;whiteSpace=wrap;html=1;fillColor=#f5f5f5;fontColor=#999999;strokeColor=#999999;" parent="1" vertex="1">
          <mxGeometry x="350" y="200" width="60" height="20" as="geometry" />
        </mxCell>
        <mxCell id="iDd988HbCzcnQ30_lzB4-32" value="&lt;i&gt;MECOlive&lt;/i&gt;" style="rounded=1;whiteSpace=wrap;html=1;fillColor=#f5f5f5;fontColor=#999999;strokeColor=#999999;" parent="1" vertex="1">
          <mxGeometry x="490" y="205" width="60" height="20" as="geometry" />
        </mxCell>
        <mxCell id="iDd988HbCzcnQ30_lzB4-33" value="Fix Bugs" style="text;html=1;fillColor=#d5e8d4;align=center;verticalAlign=middle;whiteSpace=wrap;rounded=0;fontSize=10;" parent="1" vertex="1">
          <mxGeometry x="357.5" y="72" width="45" height="15" as="geometry" />
        </mxCell>
        <mxCell id="iDd988HbCzcnQ30_lzB4-34" value="Fix SEO" style="text;html=1;fillColor=#d5e8d4;align=center;verticalAlign=middle;whiteSpace=wrap;rounded=0;fontSize=10;" parent="1" vertex="1">
          <mxGeometry x="387.5" y="162" width="45" height="15" as="geometry" />
        </mxCell>
        <mxCell id="iDd988HbCzcnQ30_lzB4-35" value="Redesign/Restructure" style="text;html=1;fillColor=#d5e8d4;align=center;verticalAlign=middle;whiteSpace=wrap;rounded=0;fontSize=10;" parent="1" vertex="1">
          <mxGeometry x="230" y="95" width="97.5" height="15" as="geometry" />
        </mxCell>
        <mxCell id="iDd988HbCzcnQ30_lzB4-36" style="edgeStyle=orthogonalEdgeStyle;rounded=1;orthogonalLoop=1;jettySize=auto;html=1;dashed=1;dashPattern=1 1;startArrow=none;startFill=0;endArrow=none;endFill=0;strokeColor=#82b366;strokeWidth=3;fontSize=10;fontColor=#999999;fillColor=#d5e8d4;" parent="1" edge="1">
          <mxGeometry relative="1" as="geometry">
            <mxPoint x="160" y="190" as="targetPoint" />
            <Array as="points">
              <mxPoint x="160" y="152.41" />
              <mxPoint x="160" y="152.41" />
            </Array>
            <mxPoint x="160" y="110" as="sourcePoint" />
          </mxGeometry>
        </mxCell>
        <mxCell id="iDd988HbCzcnQ30_lzB4-37" value="Information Flow" style="text;html=1;strokeColor=none;fillColor=none;align=left;verticalAlign=middle;whiteSpace=wrap;rounded=0;fontSize=10;" parent="1" vertex="1">
          <mxGeometry x="190" y="215" width="100" height="10" as="geometry" />
        </mxCell>
        <mxCell id="iDd988HbCzcnQ30_lzB4-38" value="Needs/User Actions" style="text;html=1;strokeColor=none;fillColor=none;align=left;verticalAlign=middle;whiteSpace=wrap;rounded=0;fontSize=10;" parent="1" vertex="1">
          <mxGeometry x="190" y="230" width="100" height="10" as="geometry" />
        </mxCell>
        <mxCell id="iDd988HbCzcnQ30_lzB4-39" value="" style="endArrow=classicThin;html=1;strokeColor=#B20000;strokeWidth=2;fontSize=10;fontColor=#999999;endFill=1;fillColor=#e51400;" parent="1" edge="1">
          <mxGeometry width="50" height="50" relative="1" as="geometry">
            <mxPoint x="160" y="220" as="sourcePoint" />
            <mxPoint x="180" y="220" as="targetPoint" />
          </mxGeometry>
        </mxCell>
        <mxCell id="iDd988HbCzcnQ30_lzB4-40" value="" style="endArrow=classicThin;html=1;strokeColor=#432D57;strokeWidth=2;fontSize=10;fontColor=#999999;endFill=1;fillColor=#76608a;" parent="1" edge="1">
          <mxGeometry width="50" height="50" relative="1" as="geometry">
            <mxPoint x="160" y="235" as="sourcePoint" />
            <mxPoint x="180" y="235" as="targetPoint" />
          </mxGeometry>
        </mxCell>
        <mxCell id="iDd988HbCzcnQ30_lzB4-41" value="Needed" style="text;html=1;strokeColor=none;fillColor=none;align=left;verticalAlign=middle;whiteSpace=wrap;rounded=0;fontSize=10;" parent="1" vertex="1">
          <mxGeometry x="190" y="245" width="100" height="10" as="geometry" />
        </mxCell>
        <mxCell id="iDd988HbCzcnQ30_lzB4-42" value="" style="endArrow=classicThin;html=1;strokeColor=#82b366;strokeWidth=2;fontSize=10;fontColor=#999999;endFill=1;fillColor=#d5e8d4;" parent="1" edge="1">
          <mxGeometry width="50" height="50" relative="1" as="geometry">
            <mxPoint x="160" y="250" as="sourcePoint" />
            <mxPoint x="180" y="250" as="targetPoint" />
          </mxGeometry>
        </mxCell>
        <mxCell id="iDd988HbCzcnQ30_lzB4-43" style="rounded=1;orthogonalLoop=1;jettySize=auto;html=1;startArrow=none;startFill=0;endArrow=classicThin;endFill=1;strokeWidth=1;fontSize=10;fontColor=#999999;fillColor=#e51400;strokeColor=#B20000;dashed=1;dashPattern=1 1;" parent="1" source="iDd988HbCzcnQ30_lzB4-44" target="iDd988HbCzcnQ30_lzB4-3" edge="1">
          <mxGeometry relative="1" as="geometry" />
        </mxCell>
        <mxCell id="iDd988HbCzcnQ30_lzB4-44" value="MOL" style="rounded=0;whiteSpace=wrap;html=1;strokeColor=none;fontSize=10;" parent="1" vertex="1">
          <mxGeometry x="50" y="160" width="30" height="20" as="geometry" />
        </mxCell>
        <mxCell id="iDd988HbCzcnQ30_lzB4-45" style="edgeStyle=none;rounded=1;orthogonalLoop=1;jettySize=auto;html=1;dashed=1;dashPattern=1 1;startArrow=none;startFill=0;endArrow=classicThin;endFill=1;strokeColor=#B20000;strokeWidth=1;fontSize=10;fontColor=#999999;fillColor=#e51400;" parent="1" source="iDd988HbCzcnQ30_lzB4-46" target="iDd988HbCzcnQ30_lzB4-3" edge="1">
          <mxGeometry relative="1" as="geometry" />
        </mxCell>
        <mxCell id="iDd988HbCzcnQ30_lzB4-46" value="NIA" style="rounded=0;whiteSpace=wrap;html=1;strokeColor=none;fontSize=10;" parent="1" vertex="1">
          <mxGeometry x="110" y="190" width="30" height="20" as="geometry" />
        </mxCell>
        <mxCell id="iDd988HbCzcnQ30_lzB4-47" style="edgeStyle=none;rounded=1;orthogonalLoop=1;jettySize=auto;html=1;dashed=1;dashPattern=1 1;startArrow=none;startFill=0;endArrow=classicThin;endFill=1;strokeColor=#B20000;strokeWidth=1;fontSize=10;fontColor=#999999;fillColor=#e51400;" parent="1" source="iDd988HbCzcnQ30_lzB4-48" target="iDd988HbCzcnQ30_lzB4-3" edge="1">
          <mxGeometry relative="1" as="geometry" />
        </mxCell>
        <mxCell id="iDd988HbCzcnQ30_lzB4-48" value="CECC" style="rounded=0;whiteSpace=wrap;html=1;strokeColor=none;fontSize=10;" parent="1" vertex="1">
          <mxGeometry x="50" y="100" width="40" height="20" as="geometry" />
        </mxCell>
        <mxCell id="iDd988HbCzcnQ30_lzB4-49" style="edgeStyle=none;rounded=1;orthogonalLoop=1;jettySize=auto;html=1;dashed=1;dashPattern=1 1;startArrow=none;startFill=0;endArrow=classicThin;endFill=1;strokeColor=#B20000;strokeWidth=1;fontSize=10;fontColor=#999999;fillColor=#e51400;" parent="1" source="iDd988HbCzcnQ30_lzB4-50" target="iDd988HbCzcnQ30_lzB4-3" edge="1">
          <mxGeometry relative="1" as="geometry" />
        </mxCell>
        <mxCell id="iDd988HbCzcnQ30_lzB4-50" value="MHW" style="rounded=0;whiteSpace=wrap;html=1;strokeColor=none;fontSize=10;" parent="1" vertex="1">
          <mxGeometry x="60" y="190" width="40" height="20" as="geometry" />
        </mxCell>
        <mxCell id="iDd988HbCzcnQ30_lzB4-51" style="edgeStyle=none;rounded=1;orthogonalLoop=1;jettySize=auto;html=1;dashed=1;dashPattern=1 1;startArrow=none;startFill=0;endArrow=classicThin;endFill=1;strokeColor=#B20000;strokeWidth=1;fontSize=10;fontColor=#999999;fillColor=#e51400;" parent="1" source="iDd988HbCzcnQ30_lzB4-52" target="iDd988HbCzcnQ30_lzB4-3" edge="1">
          <mxGeometry relative="1" as="geometry" />
        </mxCell>
        <mxCell id="iDd988HbCzcnQ30_lzB4-52" value="NHIA" style="rounded=0;whiteSpace=wrap;html=1;strokeColor=none;fontSize=10;" parent="1" vertex="1">
          <mxGeometry x="50" y="130" width="30" height="20" as="geometry" />
        </mxCell>
        <mxCell id="iDd988HbCzcnQ30_lzB4-53" value="&lt;p style=&quot;text-align: left&quot;&gt;&lt;span style=&quot;font-size: 14px&quot;&gt;③&lt;/span&gt;&lt;br&gt;&lt;/p&gt;" style="text;html=1;align=center;verticalAlign=middle;whiteSpace=wrap;rounded=0;fillColor=#d5e8d4;" parent="1" vertex="1">
          <mxGeometry x="387.5" y="147" width="15" height="15" as="geometry" />
        </mxCell>
        <mxCell id="iDd988HbCzcnQ30_lzB4-54" value="" style="endArrow=none;html=1;strokeWidth=2;fontSize=10;fontColor=#999999;" parent="1" edge="1">
          <mxGeometry width="50" height="50" relative="1" as="geometry">
            <mxPoint x="150" y="210" as="sourcePoint" />
            <mxPoint x="300" y="210" as="targetPoint" />
          </mxGeometry>
        </mxCell>
        <mxCell id="iDd988HbCzcnQ30_lzB4-55" style="edgeStyle=orthogonalEdgeStyle;rounded=1;orthogonalLoop=1;jettySize=auto;html=1;startArrow=classicThin;startFill=1;endArrow=classicThin;endFill=1;strokeWidth=1;fillColor=#e51400;strokeColor=#B20000;" parent="1" source="iDd988HbCzcnQ30_lzB4-3" target="iDd988HbCzcnQ30_lzB4-57" edge="1">
          <mxGeometry relative="1" as="geometry">
            <mxPoint x="170.02857142857135" y="135.59432446839344" as="sourcePoint" />
            <Array as="points">
              <mxPoint x="170" y="59.59000000000003" />
            </Array>
          </mxGeometry>
        </mxCell>
        <mxCell id="iDd988HbCzcnQ30_lzB4-56" style="edgeStyle=orthogonalEdgeStyle;rounded=0;orthogonalLoop=1;jettySize=auto;html=1;startArrow=none;startFill=0;endArrow=classicThin;endFill=1;strokeWidth=1;fillColor=#e51400;strokeColor=#B20000;dashed=1;" parent="1" source="iDd988HbCzcnQ30_lzB4-57" target="iDd988HbCzcnQ30_lzB4-58" edge="1">
          <mxGeometry relative="1" as="geometry" />
        </mxCell>
        <mxCell id="iDd988HbCzcnQ30_lzB4-57" value="local MOL" style="rounded=0;whiteSpace=wrap;html=1;" parent="1" vertex="1">
          <mxGeometry x="210" y="50" width="60" height="20" as="geometry" />
        </mxCell>
        <mxCell id="iDd988HbCzcnQ30_lzB4-58" value="Broker" style="rounded=0;whiteSpace=wrap;html=1;" parent="1" vertex="1">
          <mxGeometry x="420" y="50" width="60" height="20" as="geometry" />
        </mxCell>
        <mxCell id="iDd988HbCzcnQ30_lzB4-59" style="edgeStyle=orthogonalEdgeStyle;rounded=1;orthogonalLoop=1;jettySize=auto;html=1;startArrow=none;startFill=0;endArrow=classicThin;endFill=1;strokeColor=#B20000;strokeWidth=1;fillColor=#e51400;dashed=1;dashPattern=1 4;" parent="1" source="iDd988HbCzcnQ30_lzB4-58" target="iDd988HbCzcnQ30_lzB4-9" edge="1">
          <mxGeometry relative="1" as="geometry">
            <mxPoint x="480" y="60.700000000000045" as="sourcePoint" />
            <mxPoint x="560" y="127.70000000000005" as="targetPoint" />
          </mxGeometry>
        </mxCell>
        <mxCell id="iDd988HbCzcnQ30_lzB4-60" value="Make Content Requirements" style="text;html=1;fillColor=#d5e8d4;align=left;verticalAlign=middle;whiteSpace=wrap;rounded=0;fontSize=10;" parent="1" vertex="1">
          <mxGeometry x="95" y="72.5" width="70" height="25" as="geometry" />
        </mxCell>
        <mxCell id="iDd988HbCzcnQ30_lzB4-61" style="rounded=0;orthogonalLoop=1;jettySize=auto;html=1;startArrow=none;startFill=0;endArrow=classicThin;endFill=1;strokeWidth=2;fontSize=10;fontColor=#999999;fillColor=#76608a;strokeColor=#432D57;dashed=1;dashPattern=1 1;entryX=0.979;entryY=0.607;entryDx=0;entryDy=0;entryPerimeter=0;" parent="1" source="iDd988HbCzcnQ30_lzB4-62" target="iDd988HbCzcnQ30_lzB4-9" edge="1">
          <mxGeometry relative="1" as="geometry">
            <mxPoint x="599.0400000000002" y="150.1100000000001" as="targetPoint" />
          </mxGeometry>
        </mxCell>
        <mxCell id="iDd988HbCzcnQ30_lzB4-62" value="Lack of quality info shared" style="rounded=0;whiteSpace=wrap;html=1;strokeColor=none;fontSize=10;" parent="1" vertex="1">
          <mxGeometry x="580" y="180" width="50" height="50" as="geometry" />
        </mxCell>
        <mxCell id="iDd988HbCzcnQ30_lzB4-63" value="&lt;p&gt;&lt;span style=&quot;font-size: 14px ; text-align: left&quot;&gt;②&lt;/span&gt;&lt;/p&gt;" style="text;html=1;align=center;verticalAlign=middle;whiteSpace=wrap;rounded=0;fillColor=#d5e8d4;aspect=fixed;" parent="1" vertex="1">
          <mxGeometry x="387.5" y="87" width="15" height="15" as="geometry" />
        </mxCell>
        <mxCell id="iDd988HbCzcnQ30_lzB4-64" value="&lt;p&gt;&lt;span style=&quot;font-size: 14px ; text-align: left&quot;&gt;①&lt;/span&gt;&lt;/p&gt;" style="text;html=1;align=center;verticalAlign=middle;whiteSpace=wrap;rounded=0;fillColor=#d5e8d4;aspect=fixed;" parent="1" vertex="1">
          <mxGeometry x="150" y="97.5" width="15" height="15" as="geometry" />
        </mxCell>
        <mxCell id="iDd988HbCzcnQ30_lzB4-65" value="&lt;p style=&quot;text-align: left&quot;&gt;&lt;span style=&quot;font-size: 14px&quot;&gt;④&lt;/span&gt;&lt;br&gt;&lt;/p&gt;" style="text;html=1;align=center;verticalAlign=middle;whiteSpace=wrap;rounded=0;fillColor=#d5e8d4;aspect=fixed;" parent="1" vertex="1">
          <mxGeometry x="327.5" y="95" width="15" height="15" as="geometry" />
        </mxCell>
      </root>
    </mxGraphModel>
  </diagram>
</mxfile>
